<svg version="1.2" xmlns="http://www.w3.org/2000/svg" viewBox="0 0 19 17" width="19" height="17"><style>.a{fill:#243f4d}</style><path fill-rule="evenodd" class="a" d="m5.5 17c-0.5 0-1-0.2-1.4-0.6-0.6-0.6-0.8-1.5-0.5-2.3 0.3-0.8 1.1-1.3 1.9-1.3q0 0 0 0c0.6 0 1.1 0.2 1.5 0.6 0.4 0.4 0.6 0.9 0.6 1.5 0 0.8-0.5 1.6-1.3 1.9q-0.4 0.2-0.8 0.2zm0-3q0 0 0 0c-0.3 0-0.7 0.2-0.8 0.6-0.1 0.3-0.1 0.7 0.2 0.9 0.3 0.3 0.6 0.4 1 0.2 0.3-0.1 0.5-0.4 0.5-0.8q0-0.4-0.2-0.6-0.3-0.3-0.7-0.3zm8.4 3c-0.5 0-1-0.2-1.4-0.6-0.6-0.6-0.8-1.5-0.5-2.3 0.3-0.8 1.1-1.3 1.9-1.3 0.6 0 1.1 0.2 1.5 0.6 0.4 0.4 0.6 0.9 0.6 1.5 0 0.8-0.5 1.6-1.3 1.9q-0.4 0.2-0.8 0.2zm0-3q0 0 0 0c-0.3 0-0.7 0.2-0.8 0.6-0.1 0.3-0.1 0.7 0.2 0.9 0.2 0.3 0.6 0.4 1 0.2 0.3-0.1 0.5-0.4 0.5-0.8q0-0.4-0.3-0.6c-0.1-0.2-0.3-0.3-0.6-0.3zm-11.3 0.2q-0.1 0-0.2-0.1c-0.3-0.1-0.4-0.5-0.3-0.8 0.6-1.2 1.6-1.9 3.1-2.1l-1.1-5.4c-0.1-0.3 0.2-0.6 0.5-0.7 0.3-0.1 0.6 0.1 0.7 0.5l1.1 5.5h9.4l1.8-6.7c0 0-13.3 0-13.3 0-2.1 0-4-1.6-4.3-3.7 0-0.3 0.2-0.6 0.5-0.7 0.3 0 0.6 0.2 0.7 0.5 0.2 1.5 1.5 2.7 3.1 2.7q0 0 0 0h14.1q0.3 0 0.4 0.2 0.2 0.3 0.1 0.5l-2.1 8c-0.1 0.2-0.3 0.4-0.6 0.4h-10.3q0 0 0 0-2 0-2.7 1.5c-0.1 0.3-0.3 0.4-0.6 0.4z"/></svg>