<svg version="1.2" xmlns="http://www.w3.org/2000/svg" viewBox="0 0 20 21" width="20" height="21"><style>.a{fill:#fff}</style><path class="a" d="m2.1 4.9c-1.1 0-2.1-1-2.1-2.2 0-1.2 1-2.1 2.1-2.1 1.2 0 2.2 0.9 2.2 2.1 0 1.2-1 2.2-2.2 2.2zm0 7.8c-1.1 0-2.1-0.9-2.1-2.1 0-1.2 1-2.1 2.1-2.1 1.2 0 2.2 0.9 2.2 2.1 0 1.2-1 2.1-2.2 2.1zm0 7.9c-1.1 0-2.1-0.9-2.1-2.1 0-1.2 1-2.2 2.1-2.2 1.2 0 2.2 1 2.2 2.2 0 1.2-1 2.1-2.2 2.1zm7.9-15.7c-1.2 0-2.1-1-2.1-2.2 0-1.2 0.9-2.1 2.1-2.1 1.2 0 2.2 0.9 2.2 2.1 0 1.2-1 2.2-2.2 2.2zm0 7.8c-1.2 0-2.1-0.9-2.1-2.1 0-1.2 0.9-2.1 2.1-2.1 1.2 0 2.2 0.9 2.2 2.1 0 1.2-1 2.1-2.2 2.1zm0 7.9c-1.2 0-2.1-0.9-2.1-2.1 0-1.2 0.9-2.2 2.1-2.2 1.2 0 2.2 1 2.2 2.2 0 1.2-1 2.1-2.2 2.1zm7.9-15.7c-1.2 0-2.2-1-2.2-2.2 0-1.2 1-2.1 2.2-2.1 1.2 0 2.1 0.9 2.1 2.1 0 1.2-0.9 2.2-2.1 2.2zm0 7.8c-1.2 0-2.2-0.9-2.2-2.1 0-1.2 1-2.1 2.2-2.1 1.2 0 2.1 0.9 2.1 2.1 0 1.2-0.9 2.1-2.1 2.1zm0 7.9c-1.2 0-2.2-0.9-2.2-2.1 0-1.2 1-2.2 2.2-2.2 1.2 0 2.1 1 2.1 2.2 0 1.2-0.9 2.1-2.1 2.1z"/></svg>