<svg version="1.2" xmlns="http://www.w3.org/2000/svg" viewBox="0 0 16 16" width="16" height="16"><style>.a{fill:#243f4d}</style><path fill-rule="evenodd" class="a" d="m3.7 6.1c0.4-0.1 0.7 0.1 0.7 0.5q0.2 0.8 0.8 1.4c0.4 0.4 1 0.7 1.5 0.8 0.3 0.1 0.6 0.4 0.5 0.8-0.1 0.3-0.4 0.5-0.7 0.5-0.8-0.2-1.6-0.6-2.1-1.1-0.6-0.6-1-1.4-1.2-2.2-0.1-0.3 0.1-0.7 0.5-0.7zm3.3-6.1c3.4 0 6.3 2.8 6.3 6.3q-0.1 1.4-0.6 2.6l2.3 2c1.7 1.7 0.8 3.3 0.3 3.7-0.4 0.5-2 1.4-3.7-0.3l-2.1-2.3q-1.1 0.5-2.5 0.5c-3.5 0-6.3-2.8-6.3-6.3 0-3.4 2.8-6.2 6.3-6.2zm5.5 13.5c0.3 0.3 1.2 0.9 1.9 0.2 0.2-0.1 0.6-1-0.2-1.8l-2.2-1.9q-0.6 0.8-1.3 1.3zm-5.6-2.3c2.8 0 5-2.2 5-4.9 0-2.8-2.2-5-5-5-2.7 0-5 2.2-5 5 0 2.7 2.3 4.9 5 4.9z"/></svg>